<svg height="512pt" viewBox="0 -32 512 512" width="512pt" xmlns="http://www.w3.org/2000/svg"><g fill-rule="evenodd"><path d="m0 438.734375c0 5.539063 4.492188 10.03125 10.03125 10.03125h491.9375c5.539062 0 10.03125-4.492187 10.03125-10.03125v-135.496094c0-5.539062-4.492188-10.027343-10.03125-10.027343-5.535156 0-10.027344 4.488281-10.027344 10.027343v125.46875h-471.882812v-125.46875c0-5.539062-4.492188-10.027343-10.027344-10.027343-5.539062 0-10.03125 4.488281-10.03125 10.027343zm0 0"/><path d="m512 87.507812v-77.476562c0-5.542969-4.492188-10.03125-10.03125-10.03125h-491.9375c-5.539062 0-10.03125 4.488281-10.03125 10.03125v212.972656c0 5.539063 4.492188 10.03125 10.03125 10.03125 5.535156 0 10.027344-4.492187 10.027344-10.03125v-125.464844h471.882812v125.464844c0 5.539063 4.492188 10.03125 10.027344 10.03125 5.539062 0 10.03125-4.492187 10.03125-10.03125zm-20.058594-10.027343h-471.882812v-57.421875h471.882812zm0 0"/><path d="m439.207031 58.796875h20.636719c5.539062 0 10.03125-4.488281 10.03125-10.027344 0-5.539062-4.492188-10.03125-10.03125-10.03125h-20.636719c-5.539062 0-10.03125 4.492188-10.03125 10.03125 0 5.539063 4.492188 10.027344 10.03125 10.027344zm0 0"/><path d="m385.714844 58.796875h20.636718c5.539063 0 10.03125-4.488281 10.03125-10.027344 0-5.539062-4.492187-10.03125-10.03125-10.03125h-20.636718c-5.539063 0-10.03125 4.492188-10.03125 10.03125 0 5.539063 4.492187 10.027344 10.03125 10.027344zm0 0"/><path d="m332.222656 58.796875h20.636719c5.539063 0 10.03125-4.488281 10.03125-10.027344 0-5.539062-4.492187-10.03125-10.03125-10.03125h-20.636719c-5.539062 0-10.03125 4.492188-10.03125 10.03125 0 5.539063 4.492188 10.027344 10.03125 10.027344zm0 0"/><path d="m53.140625 276.792969c-5.539063 0-10.03125 4.488281-10.03125 10.027343v108.804688c0 5.539062 4.492187 10.027344 10.03125 10.027344h108.800781c5.539063 0 10.03125-4.488282 10.03125-10.027344v-108.804688c0-5.539062-4.492187-10.027343-10.03125-10.027343zm98.773437 108.800781h-88.746093v-88.742188h88.746093zm0 0"/><path d="m320.429688 130.621094c0-5.539063-4.488282-10.03125-10.027344-10.03125h-257.261719c-5.539063 0-10.03125 4.492187-10.03125 10.03125v116.546875c0 5.539062 4.492187 10.027343 10.03125 10.027343h257.261719c5.539062 0 10.027344-4.488281 10.027344-10.027343zm-20.058594 106.515625h-237.203125v-96.488281h237.203125zm0 0"/><path d="m310.402344 276.792969h-108.804688c-5.539062 0-10.03125 4.488281-10.03125 10.027343v108.804688c0 5.539062 4.492188 10.027344 10.03125 10.027344h108.804688c5.539062 0 10.027344-4.488282 10.027344-10.027344v-108.804688c0-5.539062-4.488282-10.027343-10.027344-10.027343zm-10.03125 108.800781h-88.742188v-88.742188h88.742188zm0 0"/><path d="m458.859375 276.792969h-108.804687c-5.539063 0-10.027344 4.488281-10.027344 10.027343v108.804688c0 5.539062 4.488281 10.027344 10.027344 10.027344h108.804687c5.539063 0 10.03125-4.488282 10.03125-10.027344v-108.804688c0-5.539062-4.492187-10.027343-10.03125-10.027343zm-10.027344 108.800781h-88.746093v-88.742188h88.742187v88.742188zm0 0"/><path d="m458.859375 120.589844h-108.804687c-5.539063 0-10.027344 4.492187-10.027344 10.03125 0 5.539062 4.488281 10.027344 10.027344 10.027344h108.804687c5.539063 0 10.03125-4.488282 10.03125-10.027344 0-5.539063-4.492187-10.03125-10.03125-10.03125zm0 0"/><path d="m458.859375 159.441406h-108.804687c-5.539063 0-10.027344 4.488282-10.027344 10.027344s4.488281 10.03125 10.027344 10.03125h108.804687c5.539063 0 10.03125-4.492188 10.03125-10.03125s-4.492187-10.027344-10.03125-10.027344zm0 0"/><path d="m458.859375 237.136719h-108.804687c-5.539063 0-10.027344 4.488281-10.027344 10.03125 0 5.539062 4.488281 10.027343 10.027344 10.027343h108.804687c5.539063 0 10.03125-4.488281 10.03125-10.027343 0-5.542969-4.492187-10.03125-10.03125-10.03125zm0 0"/><path d="m458.859375 198.289062h-108.804687c-5.539063 0-10.027344 4.488282-10.027344 10.027344 0 5.542969 4.488281 10.03125 10.027344 10.03125h108.804687c5.539063 0 10.03125-4.488281 10.03125-10.03125 0-5.539062-4.492187-10.027344-10.03125-10.027344zm0 0"/><path d="m10.03125 273.152344c5.523438 0 10.027344-4.507813 10.027344-10.03125 0-5.523438-4.503906-10.027344-10.027344-10.027344-5.527344 0-10.03125 4.503906-10.03125 10.027344 0 5.523437 4.503906 10.03125 10.03125 10.03125zm0 0"/><path d="m501.96875 253.09375c-5.523438 0-10.027344 4.503906-10.027344 10.027344 0 5.523437 4.503906 10.03125 10.027344 10.03125 5.527344 0 10.03125-4.507813 10.03125-10.03125 0-5.523438-4.503906-10.027344-10.03125-10.027344zm0 0"/></g></svg>